<svg width="31" height="30" viewBox="0 0 31 30" fill="none" xmlns="http://www.w3.org/2000/svg">
<path d="M23.8773 18.48C23.4888 18.8565 23.3103 19.401 23.3988 19.935L24.7323 27.315C24.8448 27.9405 24.5808 28.5735 24.0573 28.935C23.5443 29.31 22.8618 29.355 22.3023 29.055L15.6588 25.59C15.4278 25.467 15.1713 25.401 14.9088 25.3935H14.5023C14.3613 25.4145 14.2233 25.4595 14.0973 25.5285L7.45234 29.01C7.12384 29.175 6.75184 29.2335 6.38734 29.175C5.49934 29.007 4.90684 28.161 5.05234 27.2685L6.38734 19.8885C6.47584 19.35 6.29734 18.8025 5.90884 18.42L0.492337 13.17C0.0393372 12.7305 -0.118163 12.0705 0.0888372 11.475C0.289837 10.881 0.802837 10.4475 1.42234 10.35L8.87734 9.2685C9.44434 9.21 9.94234 8.865 10.1973 8.355L13.4823 1.62C13.5603 1.47 13.6608 1.332 13.7823 1.215L13.9173 1.11C13.9878 1.032 14.0688 0.9675 14.1588 0.915L14.3223 0.855L14.5773 0.75H15.2088C15.7728 0.8085 16.2693 1.146 16.5288 1.65L19.8573 8.355C20.0973 8.8455 20.5638 9.186 21.1023 9.2685L28.5573 10.35C29.1873 10.44 29.7138 10.875 29.9223 11.475C30.1188 12.0765 29.9493 12.7365 29.4873 13.17L23.8773 18.48Z" fill="#4FBF67"/>
</svg>
