<svg width="31" height="30" viewBox="0 0 31 30" fill="none" xmlns="http://www.w3.org/2000/svg">
<path d="M23.8778 18.48C23.4893 18.8565 23.3108 19.401 23.3993 19.935L24.7328 27.315C24.8453 27.9405 24.5813 28.5735 24.0578 28.935C23.5448 29.31 22.8623 29.355 22.3028 29.055L15.6593 25.59C15.4283 25.467 15.1718 25.401 14.9093 25.3935H14.5028C14.3618 25.4145 14.2238 25.4595 14.0978 25.5285L7.45283 29.01C7.12433 29.175 6.75233 29.2335 6.38783 29.175C5.49983 29.007 4.90733 28.161 5.05283 27.2685L6.38783 19.8885C6.47633 19.35 6.29783 18.8025 5.90933 18.42L0.492826 13.17C0.0398255 12.7305 -0.117675 12.0705 0.0893254 11.475C0.290325 10.881 0.803326 10.4475 1.42283 10.35L8.87783 9.2685C9.44483 9.21 9.94283 8.865 10.1978 8.355L13.4828 1.62C13.5608 1.47 13.6613 1.332 13.7828 1.215L13.9178 1.11C13.9883 1.032 14.0693 0.9675 14.1593 0.915L14.3228 0.855L14.5778 0.75H15.2093C15.7733 0.8085 16.2698 1.146 16.5293 1.65L19.8578 8.355C20.0978 8.8455 20.5643 9.186 21.1028 9.2685L28.5578 10.35C29.1878 10.44 29.7143 10.875 29.9228 11.475C30.1193 12.0765 29.9498 12.7365 29.4878 13.17L23.8778 18.48Z" fill="#4FBF67"/>
</svg>
