<svg width="21" height="22" viewBox="0 0 21 22" fill="none" xmlns="http://www.w3.org/2000/svg">
<path d="M20.5 10.3529C20.5 15.7879 16.0295 20.2059 10.5 20.2059C4.97048 20.2059 0.5 15.7879 0.5 10.3529C0.5 4.91794 4.97048 0.5 10.5 0.5C16.0295 0.5 20.5 4.91794 20.5 10.3529Z" fill="#2837A3" stroke="white"/>
<path d="M10.6004 8.27195C10.2737 8.27195 10.003 8.17394 9.78837 7.97794C9.58303 7.78195 9.48037 7.53461 9.48037 7.23595C9.48037 6.93728 9.58303 6.69461 9.78837 6.50794C10.003 6.31194 10.2737 6.21394 10.6004 6.21394C10.927 6.21394 11.193 6.31194 11.3984 6.50794C11.613 6.69461 11.7204 6.93728 11.7204 7.23595C11.7204 7.53461 11.613 7.78195 11.3984 7.97794C11.193 8.17394 10.927 8.27195 10.6004 8.27195ZM9.70437 16.2939V9.34995H11.4964V16.2939H9.70437Z" fill="white"/>
</svg>
